<?xml version="1.0" encoding="UTF-8" standalone="no"?>
<svg width="845px" height="156px" viewBox="0 0 845 156" version="1.1" xmlns="http://www.w3.org/2000/svg" xmlns:xlink="http://www.w3.org/1999/xlink">
    <!-- Generator: Sketch 3.6.1 (26313) - http://www.bohemiancoding.com/sketch -->
    <title>talentoday_white</title>
    <desc>Created with Sketch.</desc>
    <defs></defs>
    <g id="All" stroke="none" stroke-width="1" fill="none" fill-rule="evenodd">
        <g id="talentoday_white" fill="#FFFFFF">
            <g id="Talentoday-Logo">
                <path d="M777.186,54.336 L792.152,54.336 L810.627,106.712 L829.235,54.336 L844.403,54.336 L815.902,126.925 C810.708,139.727 802.142,147.718 791.758,150.897 L786.121,138.676 C794,135.228 798.951,132.166 802.532,124.377 L777.186,54.336" id="y"></path>
                <path d="M709.008,103.557 C709.008,89.098 718.543,80.921 737.614,80.921 C743.745,80.921 747.33,81.369 753.464,82.263 L753.464,79.224 C753.464,71.123 749.677,66.558 737.009,66.558 C729.757,66.558 722.326,67.678 714.716,69.915 L714.716,57.694 C722.326,55.456 729.757,54.336 737.009,54.336 C757.959,54.336 768.435,61.634 768.435,76.227 L768.435,124.843 L753.464,124.843 L753.464,119.889 C746.435,124.545 735.589,124.843 734.189,124.843 C717.401,124.843 709.008,117.749 709.008,103.557 L709.008,103.557 Z M737.614,91.94 C726.824,91.94 721.431,95.746 721.431,103.355 C721.431,110.966 725.683,113.671 734.189,113.671 C742.784,113.671 747.51,111.387 753.464,106.821 L753.464,93.283 C747.33,92.388 743.745,91.94 737.614,91.94 L737.614,91.94 Z" id="a"></path>
                <path d="M696.222,120.613 C683.485,124.843 671.818,124.843 664.593,124.843 C643.599,124.843 633.101,112.622 633.101,88.18 C633.101,65.618 644.248,52.658 666.541,52.658 C672.628,52.658 675.804,53.777 681.221,56.015 L681.221,28.82 L696.222,28.82 L696.222,120.613 L696.222,120.613 Z M681.221,68.707 C676.207,66.289 673.055,65.081 666.609,65.081 C652.417,65.081 646.985,72.624 646.985,87.71 C646.985,105.571 653.152,111.26 666.609,111.879 C673.048,112.175 681.221,109.26 681.221,109.26 L681.221,68.707 L681.221,68.707 Z" id="d"></path>
                <path d="M558.521,89.59 C558.521,66.088 569.712,54.336 592.096,54.336 C614.478,54.336 625.67,66.088 625.67,89.59 C625.67,113.048 614.478,124.776 592.096,124.776 C569.802,124.776 558.611,113.048 558.521,89.59 L558.521,89.59 Z M592.096,113.046 C606.197,113.046 610.706,106.288 610.706,89.321 C610.706,72.713 606.197,65.671 592.096,65.671 C577.995,65.671 573.485,72.713 573.485,89.321 C573.485,106.288 577.995,113.046 592.096,113.046 L592.096,113.046 Z" id="o"></path>
                <path d="M534.278,28.966 L534.278,50.796 L551.789,50.796 L551.789,60.796 L534.278,60.796 L534.278,104.899 C534.278,111.48 537.958,113.271 540.568,112.879 C545.76,112.099 550.318,111.129 550.318,111.129 L553.041,123.136 C553.041,123.136 544.902,125.212 537.562,125.999 C525.757,127.265 519.272,118.641 519.272,105.971 L519.284,60.796 L504.683,60.796 L504.683,50.796 L519.301,50.796 L519.274,31.665 L534.278,28.966" id="t"></path>
                <path d="M439.64,124.843 L439.64,54.336 L454.652,54.336 L454.665,60.796 C461.873,54.797 470.11,54.336 474.02,54.336 C491.612,54.336 500.409,63.089 500.409,80.592 L500.409,124.843 L485.485,124.843 L485.485,82.508 C485.485,72.033 480.86,66.913 472.34,66.796 C465.224,66.697 461.054,69.773 454.652,75.726 L454.652,124.843 L439.64,124.843" id="n"></path>
                <path d="M396.836,54.336 C416.891,54.336 426.919,64.253 426.919,84.084 C426.919,86.904 426.719,89.925 426.314,93.149 L379.402,93.149 C379.402,107.564 387.817,112.046 404.649,112.046 C412.662,112.046 417.205,111.151 423.428,109.359 L423.428,122.157 C417.205,123.948 409.639,124.843 400.73,124.843 C376.512,124.843 364.404,112.823 364.404,88.784 C364.404,65.819 375.215,54.336 396.836,54.336 L396.836,54.336 Z M379.402,81.462 L414.967,81.462 C414.698,69.107 407.487,65.87 397.819,65.712 C387.61,65.546 380.208,69.107 379.402,81.462 L379.402,81.462 Z" id="e"></path>
                <path d="M337.234,28.82 L352.234,28.82 L352.234,124.843 L337.234,124.843 L337.234,28.82 Z" id="l"></path>
                <path d="M262.279,103.557 C262.279,89.098 271.814,80.921 290.885,80.921 C297.017,80.921 300.601,81.369 306.735,82.263 L306.735,79.224 C306.735,71.123 302.948,66.558 290.28,66.558 C283.029,66.558 275.597,67.678 267.987,69.915 L267.987,57.694 C275.597,55.456 283.029,54.336 290.28,54.336 C311.231,54.336 321.706,61.634 321.706,76.227 L321.706,124.843 L306.735,124.843 L306.735,119.889 C299.706,124.545 288.86,124.843 287.46,124.843 C270.673,124.843 262.279,117.749 262.279,103.557 L262.279,103.557 Z M290.885,91.94 C280.096,91.94 274.702,95.746 274.702,103.355 C274.702,110.966 278.954,113.671 287.46,113.671 C296.055,113.671 300.781,111.387 306.735,106.821 L306.735,93.283 C300.601,92.388 297.017,91.94 290.885,91.94 L290.885,91.94 Z" id="a"></path>
                <path d="M236.778,28.966 L236.778,50.796 L254.289,50.796 L254.289,60.796 L236.778,60.796 L236.778,104.899 C236.778,111.48 240.458,113.271 243.069,112.879 C248.26,112.099 252.819,111.129 252.819,111.129 L255.541,123.136 C255.541,123.136 247.402,125.212 240.062,125.999 C228.257,127.265 221.772,118.641 221.772,105.971 L221.783,60.796 L207.183,60.796 L207.183,50.796 L221.801,50.796 L221.774,31.665 L236.778,28.966" id="t"></path>
                <path d="M176.69,77.12 C176.65,77.02 176.6,76.92 176.55,76.81 C176.42,76.54 176.26,76.32 176.11,76.15 C176.09,76.14 176.08,76.13 176.07,76.11 C175.85,75.86 175.5,75.53 173.91,74.37 C173.86,74.34 173.81,74.3 173.76,74.26 C173.7,74.21 173.64,74.17 173.58,74.12 C173.34,73.95 173.07,73.76 172.79,73.56 C169.18,70.98 162.22,66.2 152.64,59.74 C148.67,43.37 139.26,28.54 126.07,17.89 C112.42,6.88 95.22,0.810000002 77.64,0.810000002 C35.08,0.810000002 0.449999988,35.44 0.449999988,78 C0.449999988,120.56 35.08,155.19 77.64,155.19 C98.74,155.19 119.01,146.48 133.52,131.23 C142.63,133.53 149.76,134.67 155.07,134.67 C157.15,134.67 158.95,134.49 160.49,134.15 C167.5,132.58 167.45,123.19 166.42,110.01 C169.38,105.19 172.14,99.16 174.23,92.93 C174.61,91.79 174.98,90.62 175.31,89.46 C175.92,87.32 176.39,85.36 176.7,83.62 C177.42,79.56 177.05,77.99 176.69,77.12 L176.69,77.12 Z M160.98,84.12 C163.82,86.23 167.55,87.87 170.39,88.49 C170.11,89.44 169.8,90.4 169.49,91.34 C167.46,97.43 164.75,103.29 161.87,107.86 C161.82,107.92 161.79,107.98 161.75,108.04 C161.75,108.05 161.74,108.05 161.73,108.06 C160.58,109.81 154.08,111.16 144.29,109.81 C143.01,109.64 141.68,109.41 140.29,109.14 C138.94,108.87 137.62,109.75 137.36,111.11 C137.09,112.46 137.97,113.78 139.33,114.04 C140.16,114.2 141.01,114.36 141.87,114.49 C145.14,115.02 148.6,115.35 151.87,115.35 C155.56,115.35 159.02,114.93 161.68,113.9 C162.17,121.59 162.1,128.66 159.39,129.27 C156.11,130.01 149.01,130.06 133.8,126.14 C133.8,126.15 108.18,118.34 99.68,115.37 C96.08,114.12 93.49,113.21 91.99,112.77 C90.06,112.21 88.35,110.47 86.89,107.61 C80.12,94.36 81.85,63.64 84.65,55.72 C85.08,54.51 84.5,53.16 83.33,52.62 C83.31,52.61 81.99,51.99 79.07,50.08 C76.7,48.52 73.55,45.24 72.19,42.91 C69.24,37.86 71.06,32.91 77.59,28.17 C85.89,22.16 94.49,26.91 95.2,27.32 C95.41,27.46 96.18,27.97 97.43,28.8 C97.45,28.81 97.48,28.83 97.5,28.84 C104.86,33.72 166.34,75.09 169.87,77.62 C170.11,77.79 170.33,77.95 170.58,78.12 C170.64,78.18 170.71,78.23 170.79,78.28 C170.82,78.3 170.89,78.36 170.92,78.38 C170.99,78.43 171.06,78.48 171.12,78.53 C167.53,82.29 158.71,82.45 160.98,84.12 Z M133.68,66.53 C130.35,69.71 118.57,62.73 118.69,55.6 C118.72,53.28 121.86,60.33 132.05,59.38 C136.2,58.99 136.5,63.86 133.68,66.53 Z" id="Head"></path>
            </g>
        </g>
    </g>
</svg>